<?xml version="1.0" encoding="UTF-8"?><svg id="Layer_2" xmlns="http://www.w3.org/2000/svg" viewBox="0 0 700 844.38"><defs><style>.cls-1{opacity:.54;}.cls-1,.cls-2{fill:#fff;}</style></defs><g id="Layer_1-2"><path class="cls-2" d="M346.44,844.38c.55,0,1.12-.05,1.67-.05-22.23-.09-44.09-1.78-65.44-5,22.09,3.34,43.61,5.05,63.77,5.05Z"/><path class="cls-1" d="M350,844.38c63.82,0,124.47-13.43,179.42-37.47-59.04,23.61-121.86,37.18-181.31,37.43.63,0,1.25.05,1.88.05Z"/><path class="cls-2" d="M694.7,679.31l-149.94-137.92c-13.12-12.07-32.7-13.24-47.49-3.29-44.87,30.17-97.32,45.96-153.5,45.96-66.92,0-132.46-22.46-184.56-63.24C54.13,438.52,29.44,294.27,101.78,185.26c37.44-56.39,112.97-103.46,197.12-122.86,24.94-5.75,50.74-8.66,76.69-8.66,61.13,0,124.86,16.38,184.39,47.43l.31.16c16.09,9.03,31.38,19.42,45.5,30.9l11.09,9.01,3.33,2.7-3.16,2.9-93.9,86.38-1.93,1.78-2.32-1.23-9.26-4.92c-30.06-15.96-75.63-37.57-124.09-40.86-5.51-.37-11.1-.56-16.6-.56-28.53,0-57.1,4.97-83.76,15.21-23.25,8.93-55.5,24.02-70.53,44.86-3.12,4.32-4.69,10.14-2.68,15.07,2.36,5.79,9.07,8.84,15.32,8.74,10.28-.16,20.6-6.68,30.07-10.2,11.64-4.33,23.56-7.93,35.64-10.81,24.04-5.72,48.74-8.54,73.45-8.54,37.75,0,68.84,8.01,97.83,25.22,12.1,7.17,23.49,15.81,33.95,24.6,13.62,11.44,33.54,11.21,46.63-.83l149.97-137.96c6.75-6.21,6.88-16.82.31-23.2-13.34-12.95-27.49-25.04-42.26-36.07-13.29-9.92-27.33-19.25-41.72-27.72C539.11,23.37,454.31,0,372.39,0c-56.4,0-109.82,10.68-158.77,31.74C126.79,69.1,59.15,130.13,28.07,199.16,2.09,256.82-5.91,315.18,4.3,372.61c9.17,51.64,33.48,101.7,70.31,144.79,35.23,41.21,80.73,74.95,131.57,97.58,42.69,19.01,101.49,30.83,153.44,30.83,6.22-.07,12.33-.24,18.32-.52,47.63-2.8,91.56-16.68,130.58-41.23l9.53-6,2.4-1.51,2.09,1.92,97.19,89.4,3.4,3.12-3.78,2.65-12.69,8.89c-84.2,58.86-187.1,87.56-289.71,79.97-108.4-8.02-212.81-56.5-288.56-134.48-7.39-7.61-18.11-5.52-23.96.54-.31.32-.63.63-.92.98-.07.07-.13.15-.2.22-1.54,1.95-2.59,4.25-3.04,6.76-.52,2.92-.23,6.11,1.29,9.4.12.26.24.51.36.77,22.47,47.6,66.99,82.24,110.71,109.63,45.25,28.35,95.53,48.49,147.87,59.1,6.69,1.36,13.42,2.56,20.17,3.61.67.1,1.34.21,2.01.31,21.36,3.22,43.21,4.91,65.44,5,59.45-.25,122.27-13.82,181.31-37.43,62.22-24.88,120.24-60.87,165.52-104.32,6.22-5.97,6.54-15.3,1.16-21.69-.45-.54-.87-1.1-1.41-1.59Z"/></g></svg>